# xmcd
#
# Track frame offsets:
#	150
#	14142
#	25027
#	39670
#	53000
#	67040
#	77767
#	89185
#	101042
#	114147
#	126570
#	137015
#	149062
#	164155
#
# Disc length: 2369 seconds
#
# Revision: 1
# Processed by: cddbd v1.5.1PL0 Copyright (c) Steve Scherf et al.
# Submitted via: CDex 1.50Beta5
#
DISCID=d4093f0e
DTITLE=世界映画音楽全集 - 世界映画音楽 vol.3
DYEAR=1900
DGENRE=
TTITLE0=卒業 "サウンド・オブ・サイレンス"
TTITLE1=禁じられた遊び
TTITLE2=シェルブールの雨傘
TTITLE3=太陽はひとりぼっち
TTITLE4=汚れなき悪戯 "マルセリーノの歌"
TTITLE5=避暑地の出来事
TTITLE6=太陽の下の18才 "サンライト・ツイスト"
TTITLE7=天使の詩
TTITLE8=チコと鮫
TTITLE9=ハタリ
TTITLE10=昨日、今日、明日
TTITLE11=先生のお気に入り
TTITLE12=夜の門   "枯葉"
TTITLE13=いつも2人で
EXTD=
EXTT0=
EXTT1=
EXTT2=
EXTT3=
EXTT4=
EXTT5=
EXTT6=
EXTT7=
EXTT8=
EXTT9=
EXTT10=
EXTT11=
EXTT12=
EXTT13=
PLAYORDER=
